<svg width="90" height="24" viewBox="0 0 90 24" fill="none" xmlns="http://www.w3.org/2000/svg">
<path d="M6.46376 14.5879L4.93677 23.9317H0L3.93073 0H19.2953L18.5388 4.67193H8.07394L7.22788 9.91591H15.5809L14.8193 14.5879H6.46376Z" fill="white"/>
<path d="M26.0884 6.25244C26.8334 6.25244 27.4401 6.25937 27.906 6.27045C28.3719 6.28154 28.8634 6.30923 29.3831 6.35494L28.6779 10.7069C28.3668 10.6848 27.3287 10.6183 27.0599 10.6072C26.7911 10.5961 26.5326 10.5906 26.283 10.5906C25.7032 10.5906 25.2219 10.6404 24.8405 10.7415C24.4591 10.8427 24.1468 11.0213 23.9024 11.279C23.6578 11.5366 23.462 11.8787 23.3135 12.3039C23.165 12.7291 23.0345 13.2777 22.9206 13.9508L21.2797 23.9332H16.3403L18.0376 13.6142C18.282 12.1142 18.6302 10.887 19.0807 9.93403C19.5313 8.98246 20.0945 8.23175 20.7677 7.68187C21.4422 7.13337 22.2179 6.75801 23.0947 6.55578C23.9727 6.35356 24.9698 6.25244 26.0884 6.25244Z" fill="white"/>
<path d="M34.0032 17.2102L34.0122 17.7476C34.0455 18.5773 34.2887 19.1812 34.7405 19.5635C35.191 19.9443 35.9565 20.1342 37.0329 20.1342C38.1708 20.1342 39.164 20.1231 40.0139 20.1009C40.8625 20.0787 41.7521 20.033 42.6839 19.9665L42.0554 23.7797C41.4142 23.8462 39.9371 23.9432 39.036 23.9667C38.1362 23.9889 37.1776 24 36.1638 24C34.88 24 33.8049 23.8434 32.9409 23.529C32.0756 23.216 31.3858 22.7783 30.8699 22.2187C30.3528 21.6591 29.9804 20.9915 29.7513 20.2186C29.5221 19.4457 29.3993 18.6105 29.3852 17.7143C29.3698 16.7739 29.4479 15.7988 29.6181 14.7904C29.8984 12.9316 30.3298 11.4191 30.9109 10.2529C31.4933 9.088 32.1768 8.17523 32.9639 7.51315C33.7498 6.85246 34.6176 6.40368 35.5661 6.16961C36.5145 5.93414 37.5078 5.81641 38.542 5.81641C40.6539 5.81641 42.2295 6.24164 43.2675 7.09347C44.3069 7.9453 44.838 9.16557 44.8649 10.757C44.8483 11.0493 44.8265 11.3443 44.801 11.6476C44.7753 11.9496 44.7331 12.2585 44.6755 12.5729C44.3504 14.2752 43.5991 15.4747 42.4203 16.1687C41.2401 16.8626 39.5224 17.2102 37.2659 17.2102H34.0032ZM38.2284 9.61433C37.1724 9.61433 36.3789 9.89966 35.8515 10.4717C35.3216 11.0438 34.903 12.0563 34.5959 13.5134H37.2979C37.8149 13.5134 38.245 13.4912 38.5855 13.4455C38.926 13.4012 39.2088 13.3167 39.4354 13.1934C39.6607 13.0716 39.8347 12.9137 39.9563 12.7225C40.0779 12.5328 40.1764 12.2917 40.2546 11.9995C40.3326 11.7307 40.3697 11.4399 40.3646 11.1255C40.3569 10.6545 40.1956 10.2847 39.8808 10.016C39.5672 9.7487 39.0155 9.61433 38.2284 9.61433Z" fill="white"/>
<path d="M67.1942 17.2102L67.2032 17.7476C67.2365 18.5773 67.4796 19.1812 67.9315 19.5635C68.382 19.9443 69.1474 20.1342 70.2239 20.1342C71.363 20.1342 72.3563 20.1231 73.2049 20.1009C74.0535 20.0787 74.9431 20.033 75.8736 19.9665L75.2464 23.7797C74.6051 23.8462 73.1268 23.9432 72.227 23.9667C71.326 23.9889 70.3685 24 69.3547 24C68.071 24 66.9959 23.8434 66.1331 23.529C65.2679 23.216 64.578 22.7783 64.0609 22.2187C63.5451 21.6591 63.1726 20.9915 62.9422 20.2186C62.7131 19.4457 62.5903 18.6105 62.5761 17.7143C62.5608 16.7739 62.6388 15.7988 62.8078 14.7904C63.0882 12.9316 63.5195 11.4191 64.1018 10.2529C64.6829 9.088 65.3677 8.17523 66.1536 7.51315C66.9395 6.85246 67.8074 6.40368 68.7557 6.16961C69.7042 5.93414 70.6961 5.81641 71.7316 5.81641C73.8436 5.81641 75.4192 6.24164 76.4586 7.09347C77.4965 7.9453 78.029 9.16557 78.0546 10.757C78.0379 11.0493 78.0175 11.3443 77.9906 11.6476C77.965 11.9496 77.9228 12.2585 77.8652 12.5729C77.5401 14.2752 76.7887 15.4747 75.6086 16.1687C74.4298 16.8626 72.7121 17.2102 70.4542 17.2102H67.1942ZM71.4193 9.61433C70.3634 9.61433 69.571 9.89966 69.0412 10.4717C68.5113 11.0438 68.0928 12.0563 67.7856 13.5134H70.4875C71.0046 13.5134 71.4334 13.4912 71.7752 13.4455C72.1156 13.4012 72.3985 13.3167 72.6251 13.1934C72.8503 13.0716 73.0244 12.9137 73.1448 12.7225C73.2663 12.5328 73.3661 12.2917 73.4442 11.9995C73.5223 11.7307 73.5594 11.4399 73.5543 11.1255C73.5467 10.6545 73.3854 10.2847 73.0705 10.016C72.7582 9.7487 72.2065 9.61433 71.4193 9.61433Z" fill="white"/>
<path d="M49.315 23.9323H44.377L46.1882 12.9747C46.3955 11.6534 46.7027 10.5384 47.1123 9.62975C47.5219 8.7225 48.0581 7.98287 48.7225 7.41221C49.3867 6.84016 50.193 6.43294 51.1415 6.18502C52.09 5.93846 53.2061 5.81519 54.4899 5.81519C56.7055 5.81519 58.395 6.27504 59.5597 7.19336C60.7233 8.11306 61.321 9.52447 61.3517 11.4276C61.3568 11.7421 61.3415 12.0662 61.3057 12.4027C61.2698 12.7393 61.2237 13.0967 61.1674 13.4776L59.4727 23.9309H54.5346L56.2882 13.242C56.3254 13.0177 56.3535 12.8099 56.3714 12.6202C56.3894 12.4304 56.397 12.2559 56.3932 12.0993C56.3817 11.4054 56.1922 10.9068 55.8262 10.6035C55.4588 10.3001 54.9225 10.1492 54.2198 10.1492C53.681 10.1492 53.2369 10.199 52.8874 10.3001C52.5367 10.4012 52.2436 10.5688 52.0106 10.8043C51.7752 11.0398 51.5844 11.3528 51.4346 11.7448C51.2861 12.1368 51.1646 12.6354 51.0712 13.2407L49.315 23.9323Z" fill="white"/>
<path d="M84.829 10.5553L83.7846 17.0085C83.7079 17.3894 83.6732 17.7703 83.6796 18.1512C83.6874 18.6887 83.8345 19.0917 84.1187 19.3604C84.4016 19.6291 84.8968 19.7635 85.6008 19.7635H86.2997H87.293C87.6347 19.7635 87.9457 19.7579 88.2248 19.7468C88.5038 19.7357 88.6958 19.7302 88.7995 19.7302L88.1211 23.9313H86.8309C86.5506 23.9313 86.2409 23.9368 85.8991 23.9478C85.5573 23.9589 85.2104 23.9644 84.8585 23.9644H84.0202C82.177 23.9644 80.8292 23.5282 79.9767 22.6542C79.1243 21.7801 78.6853 20.5586 78.6596 18.9906C78.6546 18.6776 78.6699 18.341 78.7058 17.9823C78.7416 17.6234 78.7877 17.2536 78.8427 16.8727L81.2452 2.15196L86.2984 1.51343L85.5062 6.35433H90.0001L89.3153 10.5553H84.829Z" fill="white"/>
</svg>
